<?xml version="1.0" encoding="UTF-8"?><svg id="Livello_1" xmlns="http://www.w3.org/2000/svg" viewBox="0 0 848.4 226.1"><defs><style>.cls-1{fill:#222c59;}</style></defs><g><path class="cls-1" d="M739.7,61h65.1v19.7h-41.6v20.9h35.4v19.7h-35.4v16.5c0,4.1,3.3,7.5,7.5,7.5h35.8v19.7h-47c-10.9,0-19.7-8.8-19.7-19.7V61Z"/><path class="cls-1" d="M695,61v69.3l-7.9-17.6-27.1-51.7h-24.1v104h22.4V95.6l7.9,17.5,22.9,43.7c2.6,5,7.7,8.1,13.4,8.1h3.1c6.5,0,11.8-5.3,11.8-11.8V61h-22.4Z"/></g><path class="cls-1" d="M45.1,149.4l9.3-11.1c1.1-1.4,3.2-1.6,4.6-.5,7,5.3,15.4,8.8,23,8.8s14.6-3.9,14.6-10-5.9-8.6-15-12.4l-13.5-5.8c-10.8-4.4-21-13.2-21-28.3s15.4-31,37-31,22.4,4,31.1,11.5c1.3,1.1,1.5,3.2,.4,4.5l-8,9.9c-1.1,1.4-3,1.6-4.5,.6-6-4.1-11.9-6.3-19.1-6.3s-13.3,3.4-13.3,9.3,6.8,8.7,15.9,12.3l13.2,5.4c12.7,5.1,20.6,13.6,20.6,28.3s-14.4,32.2-39.2,32.2-25.7-4.4-36-12.9c-1.4-1.2-1.6-3.3-.4-4.7Z"/><path class="cls-1" d="M138.4,61h65.1v19.7h-41.6v20.9h35.4v19.7h-35.4v16.5c0,4.1,3.3,7.5,7.5,7.5h35.8v19.7h-47c-10.9,0-19.7-8.8-19.7-19.7V61Z"/><path class="cls-1" d="M225.8,74.9c0-7.7,6.2-13.9,13.9-13.9h23.5c22,0,40.1,7.7,40.1,32.4s-18.1,34.2-40.1,34.2h-13.9v37.4h-23.5V74.9Zm35.5,33.9c12.4,0,19-5.3,19-15.5s-6.6-13.7-19-13.7h-6.4c-3.1,0-5.6,2.5-5.6,5.6v23.6h12Zm-2.4,12.5l16.3-15,33.2,58.6h-26.3l-23.1-43.6Z"/><path class="cls-1" d="M356,61h0c8.2,0,15.5,5.3,18,13.2l28.5,90.8h-24.9l-13.6-52.6c-2.9-10.4-5.7-22.7-8.4-33.5h-.6c-2.5,11-5.3,23.1-8.2,33.5l-13.7,52.6h-24l28.4-90.3c2.5-8.1,10.1-13.6,18.6-13.6Zm-25.4,67.6h50v18.3h-50v-18.3Z"/><path class="cls-1" d="M429.2,80.7h-28.6v-19.7h80.7v19.7h-28.6v84.2h-23.5V80.7Z"/><path class="cls-1" d="M848.4,226.1H0V0H848.4V226.1ZM15,211.1H833.4V15H15V211.1Z"/><g><path class="cls-1" d="M520.2,104.6c.5-2.9-1.5-5.7-4.5-6.2-2.9-.5-5.7,1.5-6.2,4.5-.5,2.9,1.5,5.7,4.5,6.2,2.9,.5,5.7-1.5,6.2-4.5Z"/><path class="cls-1" d="M567.3,48.1c-21.6-3.7-42.5,3.3-57.5,17-.3,.2-.7,.2-.9,0l-7.2-7.5c-.3-.3-.3-.9,0-1.2l15.9-15.3c.6-.5,.6-1.4,0-2l-10.8-11.3c-.5-.6-1.4-.6-2,0l-18.2,17.5c-.6,.5-.6,1.4,0,2l3,3.1,8.8,9.2,7.8,8.1c.3,.3,.3,.8,0,1.1-8.9,9.5-15.2,21.7-17.4,35.6-5.7,35.9,18.3,70.3,54,77.3,38.5,7.5,75.3-19,80.4-57.9,4.7-35.9-20.2-69.6-55.9-75.6Zm-43.2,30.9c1.2-7.3,8.1-12.3,15.4-11.1,7.3,1.2,12.3,8.1,11.1,15.4-1.2,7.3-8.1,12.3-15.4,11.1-7.3-1.2-12.3-8.1-11.1-15.4Zm-20.7,22.8c1-6.3,7-10.6,13.3-9.6,6.3,1,10.6,7,9.6,13.3-1,6.3-7,10.6-13.3,9.6-6.3-1-10.6-7-9.6-13.3Zm55.9,37.1c-2.1,12.7-14,21.3-26.7,19.2-12.7-2.1-21.3-14-19.2-26.7,2.1-12.7,14-21.3,26.7-19.2,12.7,2.1,21.3,14,19.2,26.7Z"/><path class="cls-1" d="M536.2,88.4c3.9,.6,7.7-2,8.3-6,.6-3.9-2-7.7-6-8.3-3.9-.6-7.7,2-8.3,6-.6,3.9,2,7.7,6,8.3Z"/><path class="cls-1" d="M539.1,118.4c-9.3-1.5-18.1,4.8-19.6,14.1-1.5,9.3,4.8,18.1,14.1,19.6,9.3,1.5,18.1-4.8,19.6-14.1,1.5-9.3-4.8-18.1-14.1-19.6Z"/></g></svg>